<svg xmlns="http://www.w3.org/2000/svg"  viewBox="0 0 48 48" width="48px" height="48px"><path fill="#2100c4" d="M24,4C12.954,4,4,12.954,4,24s8.954,20,20,20s20-8.954,20-20S35.046,4,24,4z"/><circle cx="17.5" cy="31.5" r="2.5" fill="#2100c4"/><circle cx="30.5" cy="18.5" r="3.5" fill="#ddbaff"/><circle cx="30.5" cy="18.5" r="5.5" fill="none"/><path fill="none" d="M19.791,32.502C19.38,33.441,18.462,34,17.499,34c-0.334,0-0.674-0.067-1-0.21l-3.418-1.495 C13.458,34.397,15.291,36,17.5,36c2.481,0,4.5-2.019,4.5-4.5S19.981,27,17.5,27c-0.89,0-1.715,0.268-2.414,0.715l3.416,1.494 C19.767,29.763,20.344,31.237,19.791,32.502z"/><path fill="#ddbaff" d="M30.5,11c-4.142,0-7.5,3.358-7.5,7.5c0,0.175,0.014,0.347,0.026,0.52L23,19l-4.557,6.076 C18.134,25.031,17.821,25,17.5,25c-1.743,0-3.322,0.69-4.49,1.807l2.076,0.908C15.785,27.268,16.61,27,17.5,27 c2.481,0,4.5,2.019,4.5,4.5S19.981,36,17.5,36c-2.209,0-4.042-1.603-4.42-3.705l-2.075-0.908C11.005,31.425,11,31.462,11,31.5 c0,3.59,2.91,6.5,6.5,6.5s6.5-2.91,6.5-6.5c0-0.121-0.012-0.24-0.018-0.359l5.91-5.172C30.093,25.985,30.295,26,30.5,26 c4.142,0,7.5-3.358,7.5-7.5S34.642,11,30.5,11z M30.5,24c-3.033,0-5.5-2.467-5.5-5.5s2.467-5.5,5.5-5.5s5.5,2.467,5.5,5.5 S33.533,24,30.5,24z"/><path fill="#ddbaff" d="M13,31.5c0,0.272,0.034,0.536,0.08,0.795l3.418,1.495c0.326,0.143,0.666,0.21,1,0.21 c0.963,0,1.881-0.56,2.292-1.499c0.553-1.265-0.023-2.739-1.289-3.292l-3.416-1.494C13.836,28.515,13,29.908,13,31.5z"/><path fill="#ddbaff" d="M13.01,26.807l-8.98-3.918c-0.157,1.788,0.078,4.179,0.489,5.659l6.486,2.839 C11.036,29.586,11.799,27.966,13.01,26.807z"/><path fill="#fff" d="M13,31.5c0-1.592,0.836-2.985,2.086-3.785l-2.076-0.908c-1.211,1.159-1.974,2.779-2.005,4.581 l2.075,0.908C13.034,32.036,13,31.772,13,31.5z"/></svg>